PathFileType	4	(X/Y/Z)	subject01_walk1.trc
DataRate	CameraRate	NumFrames	NumMarkers	Units	OrigDataRate	OrigDataStartFrame	OrigNumFrames
60.00	60.00	       4	41	mm	60.00	63	       251
Frame#	Time	R.ASIS			L.ASIS			V.Sacral			R.Thigh.Upper			R.Thigh.Front			R.Thigh.Rear			L.Thigh.Upper			L.Thigh.Front			L.Thigh.Rear			R.Shank.Upper			R.Shank.Front			R.Shank.Rear			L.Shank.Upper			L.Shank.Front			L.Shank.Rear			R.Heel			R.Midfoot.Sup			R.Midfoot.Lat			R.Toe.Tip			L.Heel			L.Midfoot.Sup			L.Midfoot.Lat			L.Toe.Tip			Sternum			R.Acromium			L.Acromium			R.Bicep			L.Bicep			R.Elbow			L.Elbow			R.Wrist.Med			R.Wrist.Lat			L.Wrist.Med			L.Wrist.Lat			R.Toe.Lat			R.Toe.Med			L.Toe.Lat			L.Toe.Med			R.Temple			L.Temple			Top.Head			
		X1	Y1	Z1	X2	Y2	Z2	X3	Y3	Z3	X4	Y4	Z4	X5	Y5	Z5	X6	Y6	Z6	X7	Y7	Z7	X8	Y8	Z8	X9	Y9	Z9	X10	Y10	Z10	X11	Y11	Z11	X12	Y12	Z12	X13	Y13	Z13	X14	Y14	Z14	X15	Y15	Z15	X16	Y16	Z16	X17	Y17	Z17	X18	Y18	Z18	X19	Y19	Z19	X20	Y20	Z20	X21	Y21	Z21	X22	Y22	Z22	X23	Y23	Z23	X24	Y24	Z24	X25	Y25	Z25	X26	Y26	Z26	X27	Y27	Z27	X28	Y28	Z28	X29	Y29	Z29	X30	Y30	Z30	X31	Y31	Z31	X32	Y32	Z32	X33	Y33	Z33	X34	Y34	Z34	X35	Y35	Z35	X36	Y36	Z36	X37	Y37	Z37	X38	Y38	Z38	X39	Y39	Z39	X40	Y40	Z40	X41	Y41	Z41	

63      0.62000000	    607.51044515	   1048.03860793	    117.81997474	    607.75584723	   1035.32090446	   -143.31391214	    409.49210564	   1045.86481474	     -1.55171966	    651.34146947	    740.71534069	    173.16782727	    719.81767715	    697.07424531	     74.52714906	    685.48983653	    623.90649266	    168.68185038	    470.56662155	    756.96677145	   -189.61694406	    553.60659065	    694.12953298	   -132.95943474	    437.98483902	    651.92408785	   -168.19436581	    689.51046647	    445.60843621	    160.47954221	    777.04897705	    442.74669032	    114.62665252	    735.14425570	    372.29535334	    172.61984333	    348.83977967	    449.26214022	   -160.05080318	    384.21314269	    387.05214320	   -111.88109557	    314.88568134	    416.04223220	   -165.24741792	    799.52151652	     56.45682437	     96.67457380	    927.04510155	    126.34930798	     75.53110939	    921.54910218	    103.79591581	    180.50310337	   1064.06137502	    162.84129597	    126.36984112	    148.26083553	    106.10991827	    -63.30076337	    316.19154639	     70.60147706	    -62.94656665	    298.47145407	     67.80406902	   -134.54453756	    416.90304602	     44.08395138	    -63.85945061	    640.66079380	   1347.22127783	    -15.11003208	    536.67620283	   1439.78607872	    190.74921471	    587.50764737	   1463.37885789	   -223.23491506	    513.89447707	   1243.19183816	    236.83814994	    629.07061328	   1230.33586401	   -251.61393308	    453.72321043	   1147.71836156	    261.83323055	    598.06382921	   1126.18159047	   -292.68856323	    583.75368511	    911.54540611	    271.62651174	    537.11605796	    898.07434410	    315.53827556	    780.29223966	    966.18145577	   -216.61971566	    749.57095179	    931.79195594	   -276.23362414	   1010.46514468	    119.38610183	    201.32315125	   1019.41578689	    138.19286606	     91.94233929	    350.26000569	     36.87982347	   -141.32573639	    372.29354869	     46.27463806	    -40.52028880	    714.75153106	   1566.46480927	     72.67824198	    731.41173130	   1570.56117035	    -65.64789055	    730.00314886	   1743.83710552	     13.44132300
64      0.63000000	    608.53411970	   1046.41969533	    118.64334563	    608.23911064	   1034.65673643	   -141.87262115	    410.60873298	   1044.08554319	      2.04230715	    655.55641984	    740.77705868	    173.20269204	    724.93746753	    698.58574601	     74.78334618	    690.39077881	    623.65506063	    168.24506489	    469.73245227	    756.19585694	   -188.62320797	    552.98531247	    693.40890533	   -132.81225092	    437.16161671	    651.51562403	   -168.16859008	    692.84636843	    445.29652861	    160.96737382	    780.30076664	    440.36212767	    113.45531724	    737.73677070	    371.00818338	    171.74636902	    346.66346312	    449.81020031	   -160.61007646	    379.37281339	    386.83345757	   -111.12618387	    311.47474777	    416.96049151	   -165.39945841	    793.46789682	     56.70835684	     95.33800788	    923.24470091	    121.81966853	     74.06951726	    916.50705714	     99.92554267	    179.10982247	   1060.79064322	    153.69530363	    124.67176080	    138.22384095	    109.63005102	    -64.10749359	    305.53238439	     69.18883561	    -68.25419917	    287.63201377	     68.16076601	   -135.10817559	    405.15596546	     43.99289074	    -63.94582358	    641.07663277	   1345.37527998	    -12.95684298	    537.13250267	   1437.65724430	    193.69664247	    587.47125730	   1462.03557321	   -220.36993877	    514.60210407	   1240.87827736	    238.98698852	    628.13351051	   1229.78864955	   -249.77097712	    455.22087638	   1145.10289325	    264.14257958	    596.87542105	   1126.17323895	   -292.05601911	    586.56126770	    909.55590280	    272.66794678	    539.65996114	    895.50723194	    317.58216841	    777.93342680	    962.81289165	   -217.09261031	    747.00698491	    928.97644411	   -276.31109825	   1004.69720264	    111.37675346	    199.57358589	   1015.11435381	    129.75803420	     90.71314376	    338.57963625	     36.90063311	   -141.54702625	    361.22347762	     45.83465095	    -40.77118101	    715.39943817	   1565.71034948	     75.82019192	    731.55945992	   1569.33392644	    -62.13471976	    730.09737435	   1742.39515863	     16.50050547
65      0.64000000	    609.78622237	   1045.19749590	    120.25891465	    608.67373554	   1033.75182062	   -140.42871076	    411.92528585	   1042.57425464	      5.56392750	    658.73566975	    740.06835915	    173.85923756	    729.86688193	    699.66671054	     75.51407438	    695.06144020	    623.59472627	    168.30904887	    469.39312738	    755.55857413	   -187.54525833	    552.31265183	    692.34866183	   -132.19650855	    436.66982546	    651.30523358	   -168.07789795	    696.37840903	    445.04512449	    160.88361289	    784.48288304	    438.40515618	    111.22677926	    739.02075176	    369.76926097	    171.11958122	    344.68216774	    450.24981233	   -161.05436093	    375.39909628	    386.05992004	   -111.68445666	    308.77000485	    417.96654819	   -165.53929944	    786.26395755	     57.22249769	     94.13963634	    918.27920250	    116.88801177	     72.71030109	    910.36069386	     95.78107350	    177.79327572	   1056.61732112	    143.59762057	    123.09604662	    128.96900154	    113.54228711	    -64.99031340	    295.60802957	     69.24680502	    -70.45084135	    277.32928397	     68.52425888	   -135.64894684	    393.84898764	     43.93345663	    -63.97955363	    641.29321060	   1343.96705981	    -10.66638246	    537.58533508	   1435.81223609	    196.30085842	    587.90760042	   1461.66146875	   -218.03534333	    515.54063207	   1239.07586964	    241.25440091	    626.69939826	   1229.10480106	   -247.52548401	    456.82883123	   1142.76234588	    266.45828399	    595.72008960	   1125.86314361	   -290.64243503	    589.22383676	    907.60075709	    274.14430353	    542.35985090	    893.49295552	    319.27949054	    774.95270468	    959.68273045	   -217.14549519	    743.92616623	    926.68965889	   -276.67961260	    997.38419548	    102.99842814	    198.28079641	   1009.80134876	    120.56151593	     89.62630178	    327.32339497	     36.91870160	   -141.72513085	    350.64511346	     45.36336544	    -40.92189482	    715.63421043	   1564.62749670	     78.96931227	    731.33767886	   1568.35845780	    -58.95176833	    730.04522570	   1741.27631551	     19.73500367
66      0.65000000	    611.28754000	   1044.31372000	    122.25097000	    609.24634000	   1032.71338000	   -139.16844000	    413.35907000	   1041.37756000	      8.79505000	    661.52252000	    739.44427000	    174.75206000	    734.09723000	    700.48480000	     76.65710000	    699.08813000	    623.84894000	    168.64833000	    469.56772000	    755.06525000	   -186.41289000	    551.98517000	    691.18964000	   -131.54868000	    436.61902000	    651.15002000	   -167.69748000	    699.48248000	    445.08429000	    160.24312000	    788.16876000	    437.11807000	    109.06168000	    739.41931000	    368.76385000	    170.34373000	    342.95081000	    450.65958000	   -161.25537000	    372.42584000	    385.16501000	   -112.69652000	    306.79141000	    419.04541000	   -165.67059000	    778.41943000	     57.96999000	     93.16856000	    912.45038000	    111.88302000	     71.50459000	    903.54608000	     91.64961000	    176.60188000	   1051.75427000	    133.28862000	    121.66878000	    120.54929000	    117.86085000	    -65.94403000	    286.45816000	     70.87849000	    -69.25899000	    267.62003000	     68.89233000	   -136.14867000	    382.99158000	     43.88969000	    -63.96416000	    641.68799000	   1343.16431000	     -8.18587000	    538.19598000	   1434.26929000	    198.85437000	    588.70813000	   1461.75916000	   -215.81197000	    516.92267000	   1237.49414000	    243.61034000	    625.79779000	   1228.47803000	   -245.29202000	    458.51770000	   1140.72119000	    268.74060000	    595.03918000	   1125.25378000	   -288.63742000	    591.68140000	    905.97925000	    276.18152000	    545.17987000	    892.01508000	    320.63019000	    771.65161000	    956.65314000	   -217.03542000	    740.08295000	    924.77997000	   -277.31546000	    990.24335000	     94.41219000	    197.69524000	   1003.79773000	    111.32642000	     88.66818000	    316.56372000	     36.92905000	   -141.83940000	    340.58167000	     44.87072000	    -40.95996000	    715.59509000	   1563.36169000	     81.73156000	    731.09711000	   1567.71680000	    -56.22723000	    729.83972000	   1740.62561000	     23.02777000
